<?xml version="1.0" standalone="no"?>
<!DOCTYPE svg PUBLIC "-//W3C//DTD SVG 20010904//EN"
 "http://www.w3.org/TR/2001/REC-SVG-20010904/DTD/svg10.dtd">
<svg version="1.0" xmlns="http://www.w3.org/2000/svg"
 width="512.000000pt" height="512.000000pt" viewBox="0 0 512.000000 512.000000"
 preserveAspectRatio="xMidYMid meet">

<g transform="translate(0.000000,512.000000) scale(0.100000,-0.100000)"
fill="#000000" stroke="none">
<path d="M2712 5030 c-310 -33 -618 -140 -864 -302 -290 -190 -524 -456 -673
-763 -258 -530 -259 -1132 -5 -1663 83 -173 167 -298 313 -466 l34 -40 -125
-153 c-68 -84 -128 -153 -132 -153 -5 0 -33 20 -63 44 l-54 45 -394 -486
c-217 -268 -402 -497 -411 -508 -17 -22 -16 -23 70 -92 48 -38 182 -147 298
-240 l210 -171 405 500 c222 275 405 505 407 511 1 7 -22 31 -53 55 -49 38
-54 45 -43 61 7 10 64 81 126 158 l113 140 152 -77 c287 -144 559 -210 869
-210 604 1 1174 289 1533 775 277 374 413 863 365 1313 -47 438 -223 826 -513
1129 -295 309 -656 502 -1072 573 -136 23 -371 33 -493 20z m468 -484 c524
-121 917 -471 1079 -963 53 -159 73 -286 73 -458 0 -228 -42 -415 -137 -612
-77 -161 -162 -281 -290 -408 -213 -213 -469 -347 -768 -402 -137 -25 -391
-23 -523 5 -302 64 -531 188 -745 401 -216 217 -341 452 -401 756 -28 142 -30
376 -4 510 88 465 370 841 785 1050 95 47 283 109 391 129 109 20 442 15 540
-8z m-1935 -3188 c41 -32 62 -55 56 -62 -4 -6 -124 -155 -266 -331 -142 -176
-260 -322 -261 -324 -5 -6 -134 100 -134 110 0 13 523 659 533 659 4 0 37 -23
72 -52z m-546 -782 c7 -8 -5 -30 -36 -69 -39 -50 -47 -56 -62 -45 -9 7 -38 30
-66 52 -27 22 -52 41 -54 42 -2 2 18 30 44 63 l47 60 59 -46 c33 -25 63 -51
68 -57z"/>
<path d="M2053 3666 l-28 -24 -2 -382 -2 -383 -23 -25 c-72 -78 -190 -80 -262
-4 l-29 31 -63 -57 c-35 -31 -64 -62 -64 -68 0 -20 81 -85 139 -112 47 -23 70
-27 146 -27 79 0 97 3 149 29 76 37 140 101 174 174 l27 57 3 383 3 382 -25
25 c-35 35 -103 35 -143 1z"/>
<path d="M2730 3679 c-90 -15 -189 -70 -258 -143 -195 -209 -202 -542 -14
-756 99 -113 224 -166 376 -158 73 4 95 10 162 42 135 67 240 201 274 351 17
71 14 219 -5 289 -67 251 -297 412 -535 375z m178 -265 c221 -110 199 -461
-33 -541 -119 -40 -248 25 -309 156 -32 70 -29 189 7 257 30 59 101 126 149
141 61 20 130 15 186 -13z"/>
<path d="M3443 3660 c-21 -13 -35 -31 -42 -57 -14 -51 -15 -854 -1 -905 13
-47 43 -68 94 -68 29 0 47 7 66 25 l27 25 49 -22 c42 -20 66 -23 164 -23 108
0 119 2 180 31 123 58 190 153 190 266 -1 100 -59 197 -144 243 -42 23 -43 26
-15 51 37 33 69 113 69 175 0 193 -238 326 -445 248 -51 -19 -58 -19 -68 -5
-12 15 -58 36 -80 36 -7 0 -26 -9 -44 -20z m367 -158 c68 -35 97 -84 81 -135
-24 -70 -106 -117 -206 -117 -88 0 -85 -5 -85 139 0 70 3 131 7 134 3 4 39 7
79 7 59 0 81 -5 124 -28z m64 -442 c58 -22 111 -72 122 -115 8 -34 -24 -95
-65 -123 -57 -37 -135 -55 -220 -49 -42 2 -89 9 -104 16 l-28 11 3 127 3 128
35 12 c58 20 191 16 254 -7z"/>
</g>
</svg>
